<?xml version="1.0" encoding="UTF-8"?>
<svg id="Camada_1" data-name="Camada 1" xmlns="http://www.w3.org/2000/svg" viewBox="0 0 120 120">
  <defs>
    <style>
      .cls-1 {
        fill: #fff;
      }

      .cls-2 {
        fill: #11202f;
      }
    </style>
  </defs>
  <circle class="cls-1" cx="60" cy="60" r="60"/>
  <g>
    <path class="cls-2" d="M31.03,66.13l1.9-9.05h25.65l-3.35,16.2c-.9,5-4.72,7.5-11.45,7.5h-27.45c-2.47,0-4.52-.17-6.15-.52-1.63-.35-2.91-.92-3.82-1.7-.92-.78-1.48-1.79-1.7-3.03-.22-1.23-.14-2.73.23-4.5l4.85-22.75c.63-3.03,2.17-5.23,4.62-6.6,2.45-1.37,6.02-2.05,10.73-2.05h23.15c2.53,0,4.66.16,6.38.47,1.72.32,3.07.83,4.05,1.53.98.7,1.62,1.6,1.9,2.7.28,1.1.26,2.42-.07,3.95l-.9,4.1h-22.6l.2-.65c.03-.07.07-.16.1-.28.03-.12.07-.21.1-.27.17-.73.02-1.32-.42-1.75-.45-.43-1.11-.65-1.98-.65-1,0-1.77.23-2.3.7s-.92,1.22-1.15,2.25l-3.6,16.9c-.2,1.03-.13,1.77.2,2.22.33.45,1,.67,2,.67s1.77-.22,2.33-.67c.55-.45.92-1.19,1.12-2.22l.55-2.5h-3.1Z"/>
    <path class="cls-2" d="M59.38,71.68l29.7-16.95c.7-.43,1.28-.92,1.75-1.45.47-.53.77-1.08.9-1.65.2-.97.15-1.68-.15-2.15-.3-.47-.93-.7-1.9-.7-.87,0-1.61.23-2.23.7s-1.01,1.07-1.17,1.8l-.5,2.45h-22.55l1.35-6.5c.57-2.5,2.15-4.41,4.75-5.72,2.6-1.32,6.18-1.98,10.75-1.98h22.9c4.6,0,7.92.66,9.97,1.98,2.05,1.32,2.79,3.22,2.23,5.72l-1.4,6.6c-.37,1.8-.95,3.26-1.75,4.38-.8,1.12-1.95,2.09-3.45,2.93l-17.65,10.05h19.2l-2,9.3h-50.6l1.85-8.8Z"/>
  </g>
</svg>