<?xml version="1.0" encoding="UTF-8"?>
<svg id="Camada_1" data-name="Camada 1" xmlns="http://www.w3.org/2000/svg" viewBox="0 0 574 220">
  <defs>
    <style>
      .cls-1 {
        fill: #fff;
      }
    </style>
  </defs>
  <g>
    <path class="cls-1" d="M96.22,93.6l4.35-20.72h58.74l-7.67,37.1c-2.06,11.45-10.8,17.18-26.22,17.18h-62.86c-5.65,0-10.34-.4-14.08-1.2-3.74-.8-6.66-2.1-8.76-3.89-2.1-1.79-3.4-4.1-3.89-6.93-.5-2.82-.33-6.26.51-10.31l11.11-52.1c1.45-6.94,4.98-11.98,10.59-15.11,5.61-3.13,13.8-4.69,24.56-4.69h53.01c5.8,0,10.67.36,14.6,1.09,3.93.73,7.02,1.89,9.27,3.49,2.25,1.6,3.7,3.66,4.35,6.18.65,2.52.59,5.53-.17,9.04l-2.06,9.39h-51.75l.46-1.49c.07-.15.15-.36.23-.63.08-.27.15-.48.23-.63.38-1.68.06-3.01-.97-4.01-1.03-.99-2.54-1.49-4.52-1.49-2.29,0-4.05.54-5.27,1.6-1.22,1.07-2.1,2.79-2.63,5.15l-8.24,38.7c-.46,2.37-.31,4.06.46,5.1.76,1.03,2.29,1.54,4.58,1.54s4.06-.52,5.32-1.54c1.26-1.03,2.12-2.73,2.58-5.1l1.26-5.73h-7.1Z"/>
    <path class="cls-1" d="M172.59,106.31l68.01-38.81c1.6-.99,2.94-2.1,4.01-3.32,1.07-1.22,1.75-2.48,2.06-3.78.46-2.21.34-3.85-.34-4.92-.69-1.07-2.14-1.6-4.35-1.6-1.99,0-3.68.54-5.09,1.6-1.41,1.07-2.31,2.45-2.69,4.12l-1.15,5.61h-51.64l3.09-14.89c1.3-5.73,4.92-10.09,10.88-13.11,5.95-3.01,14.16-4.52,24.62-4.52h52.44c10.53,0,18.15,1.51,22.84,4.52,4.69,3.01,6.39,7.38,5.09,13.11l-3.21,15.11c-.84,4.12-2.18,7.46-4.01,10.02-1.83,2.56-4.47,4.79-7.9,6.7l-40.42,23.01h43.97l-4.58,21.3h-115.87l4.24-20.15Z"/>
  </g>
  <g>
    <path class="cls-1" d="M97,195.98c-.45,2.09-1.17,3.87-2.17,5.34-1,1.47-2.35,2.67-4.04,3.61-1.69.93-3.78,1.62-6.28,2.07-2.49.44-5.43.67-8.81.67h-30.91c-6.28,0-10.66-.94-13.15-2.8-2.49-1.87-3.29-4.83-2.4-8.88l6.41-30.31c.49-2.36,1.24-4.36,2.24-6.01,1-1.65,2.34-2.98,4.01-4.01s3.69-1.77,6.08-2.24c2.38-.47,5.22-.7,8.51-.7h30.91c3.52,0,6.45.23,8.81.7,2.36.47,4.12,1.19,5.27,2.17,2.36,2,3,5.36,1.94,10.08l-1.47,7.14h-30.11l.8-3.94c.31-1.42.23-2.44-.23-3.04-.47-.6-1.37-.9-2.7-.9s-2.36.31-3.07.94c-.71.62-1.22,1.63-1.54,3l-4.81,22.57c-.27,1.38-.18,2.38.27,3,.44.62,1.34.93,2.67.93,2.54,0,4.07-1.31,4.61-3.94l1.34-6.28h30.11l-2.27,10.82Z"/>
    <path class="cls-1" d="M108.95,169.67c.76-1.25,1.79-2.25,3.1-3,1.31-.76,2.94-1.3,4.87-1.64,1.94-.33,4.26-.5,6.98-.5h21.63c2.71,0,4.97.17,6.78.5,1.8.33,3.2.89,4.21,1.67,1,.78,1.62,1.79,1.87,3.04.24,1.25.17,2.76-.23,4.54l-4.94,23.37c-.4,1.83-.98,3.35-1.74,4.57-.76,1.23-1.8,2.23-3.14,3-1.34.78-2.97,1.34-4.91,1.67-1.94.33-4.26.5-6.98.5h-21.63c-2.72,0-4.97-.17-6.78-.5-1.8-.33-3.19-.88-4.17-1.64-.98-.76-1.59-1.76-1.84-3-.24-1.25-.17-2.78.23-4.61l4.94-23.37c.4-1.82.98-3.36,1.74-4.61ZM124.98,195.91c-.45,2.18.36,3.27,2.4,3.27,1.07,0,1.9-.26,2.5-.77.6-.51,1.01-1.35,1.24-2.5l4.21-19.83c.44-2.18-.33-3.27-2.34-3.27-1.07,0-1.9.26-2.5.77-.6.51-1.03,1.35-1.3,2.5l-4.21,19.83Z"/>
    <path class="cls-1" d="M166.17,164.66h21.43l-.6,2.67c2.54-1.02,4.92-1.77,7.14-2.24,2.23-.47,4.56-.7,7.01-.7,5.12,0,8.75,1.06,10.88,3.17,2.14,2.11,2.76,5.2,1.87,9.25l-6.48,30.45h-22.1l6.34-29.71c.44-2.18-.36-3.27-2.4-3.27-1.07,0-1.9.26-2.5.77-.6.51-1.01,1.35-1.24,2.5l-6.34,29.71h-22.1l9.08-42.6Z"/>
    <path class="cls-1" d="M218.79,172.81l1.74-8.15h5.74l2.47-11.62h22.1l-2.47,11.62h6.28l-1.74,8.15h-6.28l-7.34,34.45h-22.1l7.34-34.45h-5.74Z"/>
    <path class="cls-1" d="M284.69,175.95c.27-1.29.19-2.18-.23-2.67-.42-.49-1.21-.73-2.37-.73s-2.06.27-2.7.8c-.65.53-1.08,1.4-1.3,2.6l-.33,1.4h-21.43l.67-3.07c.4-1.82.98-3.36,1.74-4.61.76-1.25,1.8-2.25,3.14-3,1.34-.76,2.97-1.3,4.91-1.64,1.94-.33,4.26-.5,6.98-.5h20.57c2.71,0,4.97.17,6.78.5,1.8.33,3.21.89,4.21,1.67,1,.78,1.62,1.79,1.87,3.04.24,1.25.17,2.76-.23,4.54l-7.01,32.98h-21.3l.6-2.67c-2.54,1.02-4.96,1.78-7.28,2.27-2.31.49-4.67.73-7.08.73-4.99,0-8.55-1.07-10.68-3.2s-2.76-5.23-1.87-9.28l.33-1.74c.27-1.34.67-2.49,1.2-3.47.53-.98,1.25-1.85,2.14-2.6s1.99-1.43,3.31-2c1.31-.58,2.9-1.14,4.77-1.67l20.23-5.88.4-1.8ZM282.15,188.3l-3.21,1c-1.56.49-2.67,1.07-3.34,1.74-.67.67-1.16,1.65-1.47,2.94l-.2.94c-.49,2.27.38,3.4,2.6,3.4,1.16,0,2.09-.27,2.8-.8.71-.53,1.18-1.4,1.4-2.6l1.4-6.61Z"/>
    <path class="cls-1" d="M316.07,164.66h22.03l-9.08,42.6h-22.03l9.08-42.6ZM323.41,143.36c-2.58,2.18-4.21,4.81-4.87,7.88-.67,3.07-.16,5.72,1.54,7.95,1.74,2.18,4.16,3.27,7.28,3.27s5.99-1.09,8.61-3.27c2.76-2.27,4.43-4.92,5.01-7.95.67-3.07.13-5.7-1.6-7.88-1.74-2.22-4.16-3.34-7.28-3.34s-5.97,1.11-8.68,3.34Z"/>
    <path class="cls-1" d="M344.58,164.66h21.43l-.6,2.67c2.54-1.02,4.92-1.77,7.14-2.24,2.23-.47,4.56-.7,7.01-.7,5.12,0,8.75,1.06,10.88,3.17,2.14,2.11,2.76,5.2,1.87,9.25l-6.48,30.45h-22.1l6.34-29.71c.44-2.18-.36-3.27-2.4-3.27-1.07,0-1.9.26-2.5.77-.6.51-1.01,1.35-1.24,2.5l-6.34,29.71h-22.1l9.08-42.6Z"/>
    <path class="cls-1" d="M442.86,202.22c-.76,1.23-1.8,2.23-3.14,3-1.34.78-2.97,1.34-4.91,1.67-1.94.33-4.26.5-6.98.5h-21.63c-2.72,0-4.97-.17-6.78-.5-1.8-.33-3.19-.88-4.17-1.64-.98-.76-1.59-1.76-1.84-3-.24-1.25-.17-2.78.23-4.61l4.94-23.37c.4-1.82.98-3.36,1.74-4.61.76-1.25,1.79-2.25,3.1-3,1.31-.76,2.94-1.3,4.87-1.64,1.94-.33,4.26-.5,6.98-.5h21.63c2.71,0,4.97.17,6.78.5,1.8.33,3.2.89,4.21,1.67,1,.78,1.62,1.79,1.87,3.04.24,1.25.17,2.76-.23,4.54l-2.74,12.89h-28.58l-1.87,8.75c-.45,2.18.36,3.27,2.4,3.27,1.07,0,1.9-.26,2.5-.77.6-.51,1.01-1.35,1.24-2.5l1.2-5.48h22.43l-1.54,7.21c-.4,1.83-.98,3.35-1.74,4.57ZM419.62,179.49h6.61l.73-3.41c.53-2.41-.31-3.61-2.54-3.61-1.16,0-2.05.28-2.67.83-.62.56-1.09,1.48-1.4,2.77l-.73,3.41Z"/>
    <path class="cls-1" d="M457.55,164.66h21.43l-.6,2.67c3.07-2.67,7.28-3.81,12.62-3.41l-2.6,12.08c-4.67.09-7.88.89-9.61,2.4-1.69,1.51-2.67,2.87-2.94,4.07l-5.28,24.77h-22.1l9.08-42.6Z"/>
    <path class="cls-1" d="M538.07,202.22c-.76,1.23-1.8,2.23-3.14,3s-2.97,1.34-4.91,1.67c-1.94.33-4.26.5-6.98.5h-21.63c-2.72,0-4.97-.17-6.78-.5-1.8-.33-3.19-.88-4.17-1.64-.98-.76-1.59-1.76-1.84-3-.25-1.25-.17-2.78.23-4.61l1.07-5.27h22.37l-.73,3.54c-.45,2.18.35,3.27,2.4,3.27,1.07,0,1.9-.26,2.5-.77.6-.51,1.01-1.35,1.24-2.5l.26-1.13c.4-1.91-1.02-3.32-4.27-4.21l-12.15-3.14c-3.74-.98-6.19-2.11-7.35-3.41-1.11-1.25-1.4-3.16-.87-5.74l.87-4.01c.4-1.82.98-3.36,1.74-4.61.76-1.25,1.81-2.25,3.14-3,1.33-.76,2.97-1.3,4.91-1.64s4.26-.5,6.98-.5h21.16c2.72,0,4.97.17,6.78.5s3.2.89,4.21,1.67c1,.78,1.62,1.79,1.87,3.04.24,1.25.17,2.76-.23,4.54l-.6,2.87h-22.17l.2-1.07c.45-2.18-.33-3.27-2.34-3.27-.89,0-1.68.22-2.37.67s-1.1,1.02-1.24,1.74c-.09.45-.11.85-.07,1.2s.25.69.6,1c.35.31.9.61,1.64.9.73.29,1.74.59,3.04.9l9.15,2.4c4.72,1.25,7.75,2.65,9.08,4.21,1.47,1.47,1.87,3.7,1.2,6.68l-1.07,5.14c-.4,1.83-.98,3.35-1.74,4.57Z"/>
  </g>
</svg>